<svg width="20" height="19" viewBox="0 0 20 19" fill="none" xmlns="http://www.w3.org/2000/svg">
<path fill-rule="evenodd" clip-rule="evenodd" d="M17.5 0.75H2.5C1.25736 0.75 0.25 1.75736 0.25 3V13.5C0.25 14.7426 1.25736 15.75 2.5 15.75H17.5C18.7426 15.75 19.75 14.7426 19.75 13.5V3C19.75 1.75736 18.7426 0.75 17.5 0.75ZM18.25 13.5C18.25 13.9142 17.9142 14.25 17.5 14.25H2.5C2.08579 14.25 1.75 13.9142 1.75 13.5V3C1.75 2.58579 2.08579 2.25 2.5 2.25H17.5C17.9142 2.25 18.25 2.58579 18.25 3V13.5ZM13.75 18C13.75 18.4142 13.4142 18.75 13 18.75H7C6.58579 18.75 6.25 18.4142 6.25 18C6.25 17.5858 6.58579 17.25 7 17.25H13C13.4142 17.25 13.75 17.5858 13.75 18Z" fill="#0D141C"/>
</svg>
